<svg xmlns="http://www.w3.org/2000/svg" width="34.784" height="34.784" viewBox="0 0 34.784 34.784">
  <path id="Icon_awesome-arrow-alt-circle-up" data-name="Icon awesome-arrow-alt-circle-up" d="M.563,17.954A17.392,17.392,0,1,1,17.954,35.346,17.389,17.389,0,0,1,.563,17.954ZM21.04,26.089V17.954h4.972a.842.842,0,0,0,.6-1.438L18.551,8.5a.834.834,0,0,0-1.185,0L9.3,16.517a.842.842,0,0,0,.6,1.438h4.972v8.135a.844.844,0,0,0,.842.842H20.2A.844.844,0,0,0,21.04,26.089Z" transform="translate(-0.563 -0.563)" fill="#00e2bf" opacity="0.293"/>
</svg>
