<svg xmlns="http://www.w3.org/2000/svg" xmlns:xlink="http://www.w3.org/1999/xlink" width="100" height="80" viewBox="0 0 100 80">
  <defs>
    <linearGradient id="linear-gradient" x1="0.5" x2="0.5" y2="1" gradientUnits="objectBoundingBox">
      <stop offset="0" stop-color="#00ffb1"/>
      <stop offset="1" stop-color="#0062ff"/>
    </linearGradient>
  </defs>
  <path id="Icon_awesome-steam-symbol" data-name="Icon awesome-steam-symbol" d="M88.281,28.14c0,7.04-6.138,12.705-13.616,12.705-7.545,0-13.616-5.686-13.616-12.705s6.094-12.705,13.616-12.705C82.143,15.435,88.281,21.1,88.281,28.14ZM100,28.181c0,13.122-11.384,23.7-25.379,23.7L50.223,68.5c-.893,8.956-9.04,16-18.862,16-9.04,0-16.674-6-18.527-13.955L0,65.734V43.386l21.7,8.185a19.5,19.5,0,0,1,11.607-2.4L49.152,27.994C49.263,15.018,60.647,4.5,74.6,4.5,88.616,4.5,100,15.122,100,28.181ZM45.313,66.775c0-7.227-6.205-13.017-13.951-13.017a14.806,14.806,0,0,0-3.013.312l5.8,2.187c5.692,2.124,8.482,8.123,6.183,13.434-2.277,5.311-8.75,7.915-14.442,5.728-2.277-.833-4.576-1.729-6.853-2.541a14.1,14.1,0,0,0,12.321,6.915C39.107,79.793,45.313,74,45.313,66.775ZM91.629,28.181c0-8.748-7.656-15.871-17.009-15.871-9.442,0-17.076,7.123-17.076,15.871,0,8.789,7.656,15.871,17.076,15.871C83.973,44.073,91.629,36.992,91.629,28.181Z" transform="translate(0 -4.5)" fill="url(#linear-gradient)"/>
</svg>
